<?xml version="1.0" standalone="no"?>
<!DOCTYPE svg PUBLIC "-//W3C//DTD SVG 20010904//EN"
 "http://www.w3.org/TR/2001/REC-SVG-20010904/DTD/svg10.dtd">
<svg version="1.0" xmlns="http://www.w3.org/2000/svg"
 width="713.000000pt" height="713.000000pt" viewBox="0 0 713.000000 713.000000"
 preserveAspectRatio="xMidYMid meet">
<metadata>
Created by potrace 1.14, written by Peter Selinger 2001-2017
</metadata>
<g transform="translate(0.000000,713.000000) scale(0.100000,-0.100000)"
fill="#000000" stroke="none">
<path d="M3300 7114 c-19 -2 -80 -9 -135 -15 -795 -85 -1549 -450 -2126 -1030
-763 -766 -1134 -1831 -1013 -2909 153 -1361 1083 -2521 2379 -2966 352 -121
677 -180 1055 -191 543 -15 1054 84 1546 301 996 439 1746 1330 2013 2391 74
296 104 540 104 865 0 261 -14 415 -58 655 -205 1109 -938 2066 -1958 2555
-349 167 -695 270 -1097 326 -109 15 -623 28 -710 18z m536 -24 c1072 -86
2024 -633 2640 -1516 316 -453 517 -976 599 -1555 23 -156 31 -598 15 -771
-142 -1566 -1292 -2850 -2829 -3158 -247 -49 -407 -64 -696 -64 -345 0 -564
26 -877 105 -992 249 -1848 945 -2303 1874 -169 346 -274 690 -331 1090 -21
149 -30 616 -15 783 122 1335 978 2478 2226 2975 339 135 665 208 1070 240 98
8 383 6 501 -3z"/>
<path d="M1972 5503 c-42 -17 -59 -174 -43 -404 36 -510 212 -845 525 -999
144 -71 229 -91 411 -97 116 -4 172 -1 245 12 52 10 107 20 123 22 25 5 29 1
53 -53 120 -271 198 -506 244 -734 86 -428 108 -895 66 -1473 l-11 -167 102 0
102 0 5 52 c3 29 8 87 11 128 22 275 95 574 207 848 40 96 54 123 67 119 225
-67 349 -80 477 -52 203 45 347 158 453 356 127 236 190 522 193 874 1 184 -3
203 -51 225 -39 18 -261 24 -396 11 -477 -47 -773 -227 -892 -543 -48 -128
-65 -216 -65 -353 -1 -125 16 -237 53 -342 25 -73 24 -96 -10 -168 l-28 -60
-6 50 c-4 28 -16 127 -28 220 -50 409 -134 726 -271 1019 -73 155 -84 219 -50
285 69 132 102 401 68 555 -53 236 -237 427 -521 539 -200 79 -346 109 -610
127 -164 10 -400 12 -423 3z m386 -198 c353 -20 663 -123 826 -276 115 -107
164 -239 153 -407 -6 -78 -37 -215 -52 -231 -4 -3 -23 15 -43 39 -119 146
-259 267 -417 361 -127 76 -191 97 -235 79 -54 -22 -78 -100 -45 -148 9 -12
61 -45 117 -73 141 -73 235 -146 370 -290 134 -142 135 -132 -15 -150 -349
-43 -625 93 -762 376 -74 153 -125 404 -125 619 l0 117 63 -5 c34 -3 108 -8
165 -11z m2596 -1331 l46 -7 0 -71 c0 -39 -7 -131 -16 -205 -48 -413 -212
-715 -423 -778 -71 -21 -202 -20 -296 1 -109 26 -108 22 -40 123 118 174 237
300 374 398 84 60 99 125 41 180 -40 39 -87 37 -142 -6 -186 -144 -283 -240
-396 -392 -79 -106 -81 -108 -89 -80 -13 48 -9 264 6 323 31 125 108 250 199
323 123 100 320 165 559 186 127 12 126 12 177 5z"/>
</g>
</svg>
